<svg xmlns="http://www.w3.org/2000/svg" width="274.7" height="65.616" viewBox="0 0 274.7 65.616">
  <g id="Group_10367" data-name="Group 10367" transform="translate(-107.022 -100.384)">
    <g id="Group_9926" data-name="Group 9926" transform="translate(166.165 105.876)">
      <path id="Path_25678" data-name="Path 25678" d="M397.9,589.1q2.1,2.494,1.718,6.871a17.371,17.371,0,0,1-.587,3.195,20.2,20.2,0,0,1-3.127,6.719,14.807,14.807,0,0,1-4.847,4.376,11.722,11.722,0,0,1-5.691,1.51,7.085,7.085,0,0,1-4.191-1.116,4.806,4.806,0,0,1-1.962-3.086l-4.126,15.624h-8.622l9.57-36.281h8.622l-1.042,3.9a9.751,9.751,0,0,1,3.6-3.086,10.423,10.423,0,0,1,4.78-1.115A7.3,7.3,0,0,1,397.9,589.1Zm-9.788,13.809a6.879,6.879,0,0,0,2.21-3.743,6.749,6.749,0,0,0,.242-1.27,3.127,3.127,0,0,0-3.39-3.763,5.334,5.334,0,0,0-3.555,1.357,7.225,7.225,0,0,0-2.226,3.677,7.462,7.462,0,0,0-.246,1.314,3.446,3.446,0,0,0,.763,2.778,3.364,3.364,0,0,0,2.584.985A5.508,5.508,0,0,0,388.11,602.907Z" transform="translate(-366.462 -574.481)" fill="#040505"/>
      <path id="Path_25679" data-name="Path 25679" d="M419.754,588.01a10.654,10.654,0,0,1,4.995-1.314l-2.468,9.192h-2.452A8.469,8.469,0,0,0,415.2,597a6.231,6.231,0,0,0-2.462,3.874l-2.81,10.591h-8.578l6.441-24.553h8.622l-1.235,4.6A17.461,17.461,0,0,1,419.754,588.01Z" transform="translate(-368.461 -574.486)" fill="#040505"/>
      <path id="Path_25680" data-name="Path 25680" d="M447.339,588.449a8.369,8.369,0,0,1,2.187,7,17.949,17.949,0,0,1-.44,2.539A20.211,20.211,0,0,1,448.3,600H432.1a8.868,8.868,0,0,0-.133,1.008q-.276,3.151,2.657,3.151a4.227,4.227,0,0,0,2.264-.613,4.448,4.448,0,0,0,1.564-1.62h9.1a15.728,15.728,0,0,1-14.323,9.1q-4.815,0-7.38-2.67t-2.157-7.352a18.807,18.807,0,0,1,.523-2.976,16.424,16.424,0,0,1,3.3-6.477,15.687,15.687,0,0,1,5.513-4.223,16.15,16.15,0,0,1,6.824-1.467Q444.764,585.867,447.339,588.449Zm-6.391,7a2.392,2.392,0,0,0-.69-2.122,3.136,3.136,0,0,0-2.168-.722,4.958,4.958,0,0,0-3.017.963,5.949,5.949,0,0,0-2,2.844h7.7A4.325,4.325,0,0,0,440.948,595.452Zm5.632-15.318-12.109,4.333,1.513-5.777,12.294-4.945Z" transform="translate(-369.738 -573.744)" fill="#040505"/>
      <path id="Path_25681" data-name="Path 25681" d="M495.611,588.8a7.326,7.326,0,0,1,1.608,5.865,19.237,19.237,0,0,1-.441,2.539l-3.79,14.268h-8.578l3.475-13.173a9.847,9.847,0,0,0,.175-1.007,2.748,2.748,0,0,0-.716-2.32,3.317,3.317,0,0,0-2.422-.831,5.125,5.125,0,0,0-3.269,1.094,5.59,5.59,0,0,0-1.91,3.064l-3.518,13.173h-8.578l3.518-13.173q.148-.7.168-.919a2.866,2.866,0,0,0-.71-2.386,3.32,3.32,0,0,0-2.464-.853,5.148,5.148,0,0,0-3.292,1.117,5.715,5.715,0,0,0-1.942,3.171l.016-.174-3.479,13.218h-8.578l6.441-24.553h8.622l-.982,3.721a11.336,11.336,0,0,1,3.687-2.868,10.514,10.514,0,0,1,4.712-1.073,7.806,7.806,0,0,1,4.532,1.226,5.883,5.883,0,0,1,2.362,3.5,14.57,14.57,0,0,1,4.328-3.435,10.9,10.9,0,0,1,5.1-1.292Q493.672,586.7,495.611,588.8Z" transform="translate(-371.298 -574.486)" fill="#040505"/>
      <path id="Path_25682" data-name="Path 25682" d="M515.482,586.248,509,610.8h-8.621l6.484-24.553Zm-6.66-8.645a6.248,6.248,0,0,1,2.286-1.859,6.846,6.846,0,0,1,3.081-.7,4.259,4.259,0,0,1,3.063,1.006,3.075,3.075,0,0,1,.908,2.625,4.96,4.96,0,0,1-.988,2.539,6.032,6.032,0,0,1-2.264,1.859,6.877,6.877,0,0,1-3.057.679,4.325,4.325,0,0,1-3.107-1.006,3.027,3.027,0,0,1-.912-2.583A4.928,4.928,0,0,1,508.822,577.6Z" transform="translate(-374.133 -573.819)" fill="#040505"/>
      <path id="Path_25683" data-name="Path 25683" d="M545.972,586.929l-6.484,24.553h-8.622l1.057-4.071a11.96,11.96,0,0,1-3.928,3.13,10.96,10.96,0,0,1-4.982,1.159,6.682,6.682,0,0,1-5.334-2.058,7.407,7.407,0,0,1-1.467-5.733,15.966,15.966,0,0,1,.5-2.757l3.786-14.225h8.534L525.56,600.1a5.5,5.5,0,0,0-.183,1.094,2.829,2.829,0,0,0,3.114,3.414,5.04,5.04,0,0,0,3.368-1.226,6.61,6.61,0,0,0,2.032-3.458l-.02.219,3.479-13.217Z" transform="translate(-375.038 -574.499)" fill="#040505"/>
      <path id="Path_25684" data-name="Path 25684" d="M590.643,588.8a7.319,7.319,0,0,1,1.608,5.865,19.242,19.242,0,0,1-.441,2.539l-3.79,14.268h-8.578l3.475-13.173a9.588,9.588,0,0,0,.175-1.007,2.748,2.748,0,0,0-.716-2.32,3.315,3.315,0,0,0-2.422-.831,5.126,5.126,0,0,0-3.269,1.094,5.589,5.589,0,0,0-1.91,3.064l-3.518,13.173H562.68L566.2,598.3q.148-.7.168-.919a2.866,2.866,0,0,0-.71-2.386,3.318,3.318,0,0,0-2.463-.853,5.149,5.149,0,0,0-3.293,1.117,5.715,5.715,0,0,0-1.942,3.171l.016-.174L554.5,611.469h-8.578l6.441-24.553h8.623L560,590.637a11.345,11.345,0,0,1,3.687-2.868A10.52,10.52,0,0,1,568.4,586.7a7.806,7.806,0,0,1,4.532,1.226,5.888,5.888,0,0,1,2.363,3.5,14.553,14.553,0,0,1,4.327-3.435,10.9,10.9,0,0,1,5.1-1.292Q588.7,586.7,590.643,588.8Z" transform="translate(-376.742 -574.486)" fill="#040505"/>
    </g>
    <g id="Group_9927" data-name="Group 9927" transform="translate(181.01 148.716)">
      <path id="Path_25685" data-name="Path 25685" d="M386.436,621.762l-1.036,3.959h4.4l-.314,1.15h-4.4l-1.061,4.041h4.9l-.32,1.216H382.21l3.051-11.582h6.392l-.321,1.216Z" transform="translate(-382.21 -619.265)" fill="#189e84"/>
      <path id="Path_25686" data-name="Path 25686" d="M392.547,631.446a3.361,3.361,0,0,1-.706-2.637,8.008,8.008,0,0,1,.216-1.149,6.669,6.669,0,0,1,1.163-2.407,5.478,5.478,0,0,1,1.87-1.569,4.97,4.97,0,0,1,2.274-.542,3.074,3.074,0,0,1,2.086.657,2.423,2.423,0,0,1,.824,1.757l.612-2.3h1.478l-2.428,9.166a5.864,5.864,0,0,1-1.1,2.219,5.549,5.549,0,0,1-1.857,1.511,5.106,5.106,0,0,1-2.315.543,3.858,3.858,0,0,1-2.74-.88,3.057,3.057,0,0,1-.917-2.374h1.479a1.94,1.94,0,0,0,.647,1.421,2.559,2.559,0,0,0,1.73.518,3.576,3.576,0,0,0,2.235-.772,3.833,3.833,0,0,0,1.358-2.186l.657-2.446a4.923,4.923,0,0,1-1.739,1.766,4.569,4.569,0,0,1-2.4.665A3.073,3.073,0,0,1,392.547,631.446Zm2.489-6.1a4.514,4.514,0,0,0-1.461,2.431,4.726,4.726,0,0,0-.153.8,2.243,2.243,0,0,0,.522,1.824,2.373,2.373,0,0,0,1.807.656,3.725,3.725,0,0,0,1.678-.4,4.209,4.209,0,0,0,1.407-1.15,4.723,4.723,0,0,0,.866-1.733,3.8,3.8,0,0,0,.129-.723,2.386,2.386,0,0,0-.534-1.889,2.3,2.3,0,0,0-1.8-.708A3.724,3.724,0,0,0,395.035,625.345Z" transform="translate(-382.714 -619.414)" fill="#189e84"/>
      <path id="Path_25687" data-name="Path 25687" d="M411.35,623.351a2.622,2.622,0,0,1,1.137,1.183,3.241,3.241,0,0,1,.27,1.7,4.8,4.8,0,0,1-.136.805,4.535,4.535,0,0,1-.3.821H405.14a6.294,6.294,0,0,0-.128.706,2.083,2.083,0,0,0,.526,1.783,2.335,2.335,0,0,0,1.681.6,3.635,3.635,0,0,0,1.954-.551,3.272,3.272,0,0,0,1.3-1.471h1.593a5.52,5.52,0,0,1-5.1,3.235,3.474,3.474,0,0,1-2.626-.953,3.215,3.215,0,0,1-.771-2.644,6.538,6.538,0,0,1,.193-1.084,6.345,6.345,0,0,1,1.215-2.431,5.794,5.794,0,0,1,1.995-1.585,5.544,5.544,0,0,1,2.43-.551A3.978,3.978,0,0,1,411.35,623.351Zm-.078,2.966a1.827,1.827,0,0,0-.539-1.626,2.4,2.4,0,0,0-1.652-.558,3.78,3.78,0,0,0-2.268.764,4.114,4.114,0,0,0-1.494,2.242H411.1A3.929,3.929,0,0,0,411.272,626.317Zm1.24-5.915-4.011,1.922.29-1.067,4.041-2.07Z" transform="translate(-383.432 -619.187)" fill="#189e84"/>
      <path id="Path_25688" data-name="Path 25688" d="M421.152,623.94a2.565,2.565,0,0,1,.716,2.145H420.39a1.51,1.51,0,0,0-.4-1.331,2.138,2.138,0,0,0-1.573-.51,2.2,2.2,0,0,0-1.358.4,1.427,1.427,0,0,0-.594,1.06.862.862,0,0,0,.219.7,1.964,1.964,0,0,0,.651.444,9.265,9.265,0,0,0,1.085.37,10.332,10.332,0,0,1,1.427.492,2.257,2.257,0,0,1,.9.723,1.778,1.778,0,0,1,.285,1.249,4.877,4.877,0,0,1-.118.607,2.632,2.632,0,0,1-1.16,1.52,4.067,4.067,0,0,1-2.261.583,3.974,3.974,0,0,1-2.634-.779,2.327,2.327,0,0,1-.79-2.144h1.478a1.365,1.365,0,0,0,.435,1.33,2.577,2.577,0,0,0,1.754.509,2,2,0,0,0,1.317-.411,1.484,1.484,0,0,0,.551-1.051,1.047,1.047,0,0,0-.225-.806,1.794,1.794,0,0,0-.68-.484,11,11,0,0,0-1.15-.386,12.477,12.477,0,0,1-1.346-.469,2.039,2.039,0,0,1-.846-.666,1.649,1.649,0,0,1-.268-1.166,3.515,3.515,0,0,1,.1-.559,2.622,2.622,0,0,1,1.164-1.57,4.1,4.1,0,0,1,2.295-.6A3.474,3.474,0,0,1,421.152,623.94Z" transform="translate(-384.034 -619.414)" fill="#189e84"/>
      <path id="Path_25689" data-name="Path 25689" d="M423.822,631.019h4.83l-.356,1.265h-6.458l.319-1.2,6.308-6.556h-4.469l.357-1.264h6.178l-.337,1.215Z" transform="translate(-384.48 -619.421)" fill="#189e84"/>
      <path id="Path_25690" data-name="Path 25690" d="M437.708,623.94a2.568,2.568,0,0,1,.716,2.145h-1.478a1.516,1.516,0,0,0-.4-1.331,2.14,2.14,0,0,0-1.574-.51,2.206,2.206,0,0,0-1.358.4,1.429,1.429,0,0,0-.593,1.06.862.862,0,0,0,.219.7,1.97,1.97,0,0,0,.65.444,9.349,9.349,0,0,0,1.086.37,10.313,10.313,0,0,1,1.426.492,2.253,2.253,0,0,1,.9.723,1.778,1.778,0,0,1,.285,1.249,4.747,4.747,0,0,1-.119.607,2.628,2.628,0,0,1-1.16,1.52,4.064,4.064,0,0,1-2.261.583,3.976,3.976,0,0,1-2.634-.779,2.327,2.327,0,0,1-.789-2.144H432.1a1.364,1.364,0,0,0,.434,1.33,2.577,2.577,0,0,0,1.754.509,2,2,0,0,0,1.318-.411,1.488,1.488,0,0,0,.551-1.051,1.047,1.047,0,0,0-.225-.806,1.8,1.8,0,0,0-.681-.484,11.043,11.043,0,0,0-1.149-.386,12.576,12.576,0,0,1-1.347-.469,2.036,2.036,0,0,1-.845-.666,1.644,1.644,0,0,1-.268-1.166,3.411,3.411,0,0,1,.1-.559,2.62,2.62,0,0,1,1.163-1.57,4.106,4.106,0,0,1,2.3-.6A3.476,3.476,0,0,1,437.708,623.94Z" transform="translate(-384.982 -619.414)" fill="#189e84"/>
      <path id="Path_25691" data-name="Path 25691" d="M447.546,623.351a2.614,2.614,0,0,1,1.136,1.183,3.241,3.241,0,0,1,.271,1.7,5,5,0,0,1-.136.805,4.529,4.529,0,0,1-.3.821h-7.179a6.528,6.528,0,0,0-.128.706,2.083,2.083,0,0,0,.526,1.783,2.339,2.339,0,0,0,1.682.6,3.632,3.632,0,0,0,1.953-.551,3.272,3.272,0,0,0,1.3-1.471h1.593a5.52,5.52,0,0,1-5.1,3.235,3.476,3.476,0,0,1-2.627-.953,3.215,3.215,0,0,1-.771-2.644,6.537,6.537,0,0,1,.193-1.084,6.346,6.346,0,0,1,1.215-2.431,5.789,5.789,0,0,1,2-1.585,5.541,5.541,0,0,1,2.43-.551A3.983,3.983,0,0,1,447.546,623.351Zm-.079,2.966a1.827,1.827,0,0,0-.539-1.626,2.4,2.4,0,0,0-1.652-.558,3.775,3.775,0,0,0-2.267.764,4.109,4.109,0,0,0-1.494,2.242H447.3A3.872,3.872,0,0,0,447.467,626.317Zm1.24-5.915-4.011,1.922.29-1.067,4.041-2.07Z" transform="translate(-385.506 -619.187)" fill="#189e84"/>
      <path id="Path_25692" data-name="Path 25692" d="M451.344,631.446a3.362,3.362,0,0,1-.707-2.637,8.166,8.166,0,0,1,.217-1.149,6.683,6.683,0,0,1,1.162-2.407,5.49,5.49,0,0,1,1.871-1.569,4.97,4.97,0,0,1,2.273-.542,3.075,3.075,0,0,1,2.087.657,2.43,2.43,0,0,1,.824,1.757l.612-2.3h1.478l-2.428,9.166a5.878,5.878,0,0,1-1.1,2.219,5.549,5.549,0,0,1-1.857,1.511,5.106,5.106,0,0,1-2.315.543,3.858,3.858,0,0,1-2.74-.88,3.057,3.057,0,0,1-.917-2.374h1.479a1.94,1.94,0,0,0,.647,1.421,2.559,2.559,0,0,0,1.73.518,3.576,3.576,0,0,0,2.235-.772,3.833,3.833,0,0,0,1.358-2.186l.657-2.446a4.93,4.93,0,0,1-1.739,1.766,4.569,4.569,0,0,1-2.4.665A3.072,3.072,0,0,1,451.344,631.446Zm2.489-6.1a4.514,4.514,0,0,0-1.461,2.431,4.634,4.634,0,0,0-.153.8,2.246,2.246,0,0,0,.521,1.824,2.376,2.376,0,0,0,1.808.656,3.728,3.728,0,0,0,1.678-.4,4.209,4.209,0,0,0,1.407-1.15,4.722,4.722,0,0,0,.866-1.733,3.8,3.8,0,0,0,.129-.723,2.386,2.386,0,0,0-.534-1.889,2.3,2.3,0,0,0-1.8-.708A3.724,3.724,0,0,0,453.832,625.345Z" transform="translate(-386.082 -619.414)" fill="#189e84"/>
      <path id="Path_25693" data-name="Path 25693" d="M471.557,624.079a3.254,3.254,0,0,1,.7,2.579,7.036,7.036,0,0,1-.2,1.118,6.78,6.78,0,0,1-1.176,2.455,5.636,5.636,0,0,1-1.9,1.6,4.965,4.965,0,0,1-2.292.558,2.981,2.981,0,0,1-2.053-.656,2.394,2.394,0,0,1-.791-1.757l-1.741,6.57h-1.5l3.512-13.289h1.5l-.612,2.3a4.884,4.884,0,0,1,1.731-1.757,4.578,4.578,0,0,1,2.407-.657A3.08,3.08,0,0,1,471.557,624.079Zm-2.481,6.12a4.6,4.6,0,0,0,1.477-2.423,5.013,5.013,0,0,0,.136-.806,2.278,2.278,0,0,0-.513-1.839,2.366,2.366,0,0,0-1.816-.658,3.7,3.7,0,0,0-1.686.4,4.13,4.13,0,0,0-1.391,1.159,4.794,4.794,0,0,0-.858,1.742,3.958,3.958,0,0,0-.131.739,2.166,2.166,0,0,0,2.322,2.562A3.75,3.75,0,0,0,469.076,630.2Z" transform="translate(-386.702 -619.414)" fill="#189e84"/>
      <path id="Path_25694" data-name="Path 25694" d="M481.911,623.351a2.614,2.614,0,0,1,1.136,1.183,3.241,3.241,0,0,1,.271,1.7,4.9,4.9,0,0,1-.136.805,4.608,4.608,0,0,1-.3.821H475.7a6.24,6.24,0,0,0-.127.706,2.077,2.077,0,0,0,.526,1.783,2.336,2.336,0,0,0,1.681.6,3.635,3.635,0,0,0,1.954-.551,3.27,3.27,0,0,0,1.294-1.471h1.594a5.522,5.522,0,0,1-5.1,3.235,3.476,3.476,0,0,1-2.627-.953,3.215,3.215,0,0,1-.771-2.644,6.538,6.538,0,0,1,.193-1.084,6.347,6.347,0,0,1,1.216-2.431,5.785,5.785,0,0,1,1.995-1.585,5.544,5.544,0,0,1,2.43-.551A3.981,3.981,0,0,1,481.911,623.351Zm-.079,2.966a1.827,1.827,0,0,0-.539-1.626,2.4,2.4,0,0,0-1.651-.558,3.776,3.776,0,0,0-2.268.764,4.109,4.109,0,0,0-1.494,2.242h5.783A3.924,3.924,0,0,0,481.832,626.317Zm1.241-5.915-4.012,1.922.29-1.067,4.041-2.07Z" transform="translate(-387.474 -619.187)" fill="#189e84"/>
      <path id="Path_25695" data-name="Path 25695" d="M493.639,623.855a2.673,2.673,0,0,1,.59,2.178,6.013,6.013,0,0,1-.17,1l-1.4,5.241H491.17l1.35-5.109a4.22,4.22,0,0,0,.13-.739,1.861,1.861,0,0,0-.424-1.527,2.048,2.048,0,0,0-1.531-.526,3.263,3.263,0,0,0-2.174.8,4.384,4.384,0,0,0-1.336,2.325l0-.066-1.278,4.846H484.4l2.382-9.019h1.512l-.563,2.119a4.452,4.452,0,0,1,3.861-2.268A2.7,2.7,0,0,1,493.639,623.855Z" transform="translate(-388.064 -619.411)" fill="#189e84"/>
      <path id="Path_25696" data-name="Path 25696" d="M496.8,631.019h4.83l-.356,1.265h-6.457l.319-1.2,6.307-6.556h-4.468l.357-1.264h6.178l-.337,1.215Z" transform="translate(-388.661 -619.421)" fill="#189e84"/>
      <path id="Path_25697" data-name="Path 25697" d="M505.944,629.322a3.861,3.861,0,0,0-.1.558.8.8,0,0,0,.222.739,1.523,1.523,0,0,0,.927.214h.919l-.361,1.314h-1.117a2.58,2.58,0,0,1-1.693-.46,1.677,1.677,0,0,1-.451-1.512,4.611,4.611,0,0,1,.159-.886l1.3-4.862H504.4l.326-1.3h1.364l.591-2.251h1.5l-.591,2.251h2.332l-.343,1.3h-2.333Z" transform="translate(-389.203 -619.284)" fill="#189e84"/>
      <path id="Path_25698" data-name="Path 25698" d="M518.113,623.582a2.426,2.426,0,0,1,.832,1.749l.612-2.3h1.478l-2.382,9.019h-1.5l.612-2.3a4.842,4.842,0,0,1-1.714,1.749,4.537,4.537,0,0,1-2.408.665,3.1,3.1,0,0,1-2.439-.945,3.3,3.3,0,0,1-.7-2.6,6.138,6.138,0,0,1,.219-1.182,6.638,6.638,0,0,1,1.163-2.407,5.475,5.475,0,0,1,1.869-1.569,4.938,4.938,0,0,1,2.257-.542A3.079,3.079,0,0,1,518.113,623.582Zm-4.407,1.544a4.489,4.489,0,0,0-1.46,2.424,4.722,4.722,0,0,0-.153.8,2.279,2.279,0,0,0,.513,1.84,2.367,2.367,0,0,0,1.816.657,3.652,3.652,0,0,0,1.678-.411,4.2,4.2,0,0,0,1.4-1.158,4.767,4.767,0,0,0,.859-1.733,4.15,4.15,0,0,0,.13-.74,2.167,2.167,0,0,0-2.322-2.563A3.744,3.744,0,0,0,513.706,625.126Zm5.949-4.724-4.012,1.922.291-1.067,4.041-2.07Z" transform="translate(-389.559 -619.187)" fill="#189e84"/>
      <path id="Path_25699" data-name="Path 25699" d="M526.734,623.634a4.61,4.61,0,0,1,2.181-.527l-.437,1.627h-.46a4,4,0,0,0-2.207.625,3.425,3.425,0,0,0-1.38,2.069l-1.278,4.846H521.64l2.382-9.019h1.512l-.488,1.823A4.968,4.968,0,0,1,526.734,623.634Z" transform="translate(-390.197 -619.411)" fill="#189e84"/>
    </g>
    <g id="Group_9928" data-name="Group 9928" transform="translate(107.022 100.384)">
      <path id="Path_25700" data-name="Path 25700" d="M366.267,582.407c-.017.022-.05.007-.057.05.033.019.044-.008.075.008C366.278,582.427,366.243,582.448,366.267,582.407Z" transform="translate(-307.305 -568.748)" fill="#189e84"/>
      <path id="Path_25701" data-name="Path 25701" d="M313.451,578.024c-.03.111-.065.222-.1.33-.353,1.18-.748,2.277-1.059,3.408a11.391,11.391,0,0,1,1.059-3.588A.948.948,0,0,1,313.451,578.024Z" transform="translate(-304.216 -568.497)" fill="#189e84"/>
      <path id="Path_25702" data-name="Path 25702" d="M312.168,582.526l-.137-.049c0,.192-.168.328,0,.581Z" transform="translate(-304.197 -568.752)" fill="#189e84"/>
      <path id="Path_25703" data-name="Path 25703" d="M313.678,577.366a.3.3,0,0,1-.076.111.693.693,0,0,1-.031-.111.211.211,0,0,1,.081-.241A.275.275,0,0,1,313.678,577.366Z" transform="translate(-304.289 -568.445)" fill="#189e84"/>
      <path id="Path_25704" data-name="Path 25704" d="M353.493,634.518a.3.3,0,0,1-.139-.219c-.057-.378-.347-.427-.621-.491-.1-.024-.26-.042-.257.116.008.372-.2.289-.386.258a.417.417,0,0,0-.31.053c-.528.321-.512.289-1.1-.145a.813.813,0,0,0-.913-.121.741.741,0,0,1-.59.135,19.06,19.06,0,0,1-1.99-.277,1.3,1.3,0,0,1-.866-.388.7.7,0,0,0-.661-.2,5.137,5.137,0,0,1-1.488-.047.712.712,0,0,0-.561.107,10.041,10.041,0,0,0,2.5.434c.123,0,.271.031.208.274-.587.134-1.153-.2-1.776-.066a4.592,4.592,0,0,0,.84.222,27.083,27.083,0,0,1,5.758,1.117c.061.018.137.056.188.033.452-.2.853.017,1.272.1a.718.718,0,0,0,.534-.045c.016-.216-.225-.183-.2-.361.129-.1.251-.015.374,0,.148.014.334.089.421-.08C353.847,634.684,353.637,634.61,353.493,634.518Z" transform="translate(-306.01 -571.656)" fill="#189e84"/>
      <path id="Path_25705" data-name="Path 25705" d="M308.6,622.32c-.129-.006-.28.038-.387-.016-.97-.492-2.086-.3-3.09-.624a1.381,1.381,0,0,0-.448.008.166.166,0,0,1,.054.03.075.075,0,0,1,.013.058c-.049.213-.366.175-.37.433.546.537.628.543,1.16.061a.274.274,0,0,1,.3-.061,2.362,2.362,0,0,0,1.028.076.5.5,0,0,1,.377.064c.384.317.886.122,1.3.3a.213.213,0,0,0,.316-.155C308.9,622.265,308.722,622.326,308.6,622.32Z" transform="translate(-303.763 -570.997)" fill="#189e84"/>
      <path id="Path_25706" data-name="Path 25706" d="M327.391,627.269a16.867,16.867,0,0,1,2,.484,18.662,18.662,0,0,0,3.083.676,3.05,3.05,0,0,1,1.17.342.309.309,0,0,0,.468-.024c-2.609-.762-5.22-1.285-7.825-1.836A4.077,4.077,0,0,0,327.391,627.269Z" transform="translate(-305.018 -571.298)" fill="#189e84"/>
      <path id="Path_25707" data-name="Path 25707" d="M304.886,623.357a.275.275,0,0,0,.07.251c.2.182.481.168.718.26.34.134.652.143.822-.331-.439-.322-1-.119-1.473-.291A.113.113,0,0,0,304.886,623.357Z" transform="translate(-303.792 -571.087)" fill="#189e84"/>
      <path id="Path_25708" data-name="Path 25708" d="M335.245,629.088c1.27.448,2.489.716,3.841,1.05A13.434,13.434,0,0,0,335.245,629.088Z" transform="translate(-305.531 -571.422)" fill="#189e84"/>
      <path id="Path_25709" data-name="Path 25709" d="M306.126,621.507a3.057,3.057,0,0,0,.869.221,6.654,6.654,0,0,1,1.713.28.61.61,0,0,0,.568-.141l-3.122-.539Z" transform="translate(-303.863 -570.978)" fill="#189e84"/>
      <path id="Path_25710" data-name="Path 25710" d="M318.662,624.674a12.019,12.019,0,0,0-2.254-.552A3.961,3.961,0,0,0,318.662,624.674Z" transform="translate(-304.452 -571.138)" fill="#189e84"/>
      <path id="Path_25711" data-name="Path 25711" d="M333.15,629.289a9.383,9.383,0,0,0-3.3-.776C330.98,628.64,332.04,629.072,333.15,629.289Z" transform="translate(-305.222 -571.389)" fill="#189e84"/>
      <path id="Path_25712" data-name="Path 25712" d="M334.6,629.667l1.625.445.039-.15A3.614,3.614,0,0,0,334.6,629.667Z" transform="translate(-305.494 -571.454)" fill="#189e84"/>
      <path id="Path_25713" data-name="Path 25713" d="M313.423,623.176c-.495.091-.881-.2-1.308-.257-.076-.007-.069-.046,0-.057.319.069.652-.061.955.081a.753.753,0,0,1,.272.123.693.693,0,0,1,.049.057A.41.41,0,0,1,313.423,623.176Z" transform="translate(-304.203 -571.065)" fill="#189e84"/>
      <path id="Path_25714" data-name="Path 25714" d="M314.973,624.052a.4.4,0,0,0-.4.127c.138.061.228.107.322.142.13.048.308.2.376-.034S315.11,624.078,314.973,624.052Z" transform="translate(-304.347 -571.133)" fill="#189e84"/>
      <path id="Path_25715" data-name="Path 25715" d="M322.352,625.874l.849.233C322.976,625.781,322.655,625.875,322.352,625.874Z" transform="translate(-304.793 -571.237)" fill="#189e84"/>
      <path id="Path_25716" data-name="Path 25716" d="M341.752,630.7a1.06,1.06,0,0,0-1.033-.2A1.406,1.406,0,0,0,341.752,630.7Z" transform="translate(-305.845 -571.5)" fill="#189e84"/>
      <path id="Path_25717" data-name="Path 25717" d="M338.7,632.2c.215.008.413.242.763.083A.78.78,0,0,0,338.7,632.2Z" transform="translate(-305.729 -571.596)" fill="#189e84"/>
      <path id="Path_25718" data-name="Path 25718" d="M329.71,630.06l.905.247,0-.019-.832-.293Z" transform="translate(-305.214 -571.474)" fill="#189e84"/>
      <path id="Path_25719" data-name="Path 25719" d="M305.06,621.242c.051-.158-.035-.22-.141-.252-.124-.038-.154-.01-.172.166a4.42,4.42,0,0,1-.052.491v0h0l0,0C304.808,621.5,304.995,621.441,305.06,621.242Z" transform="translate(-303.781 -570.957)" fill="#189e84"/>
      <path id="Path_25720" data-name="Path 25720" d="M336.709,631.693a.49.49,0,0,0,.666.143A.655.655,0,0,0,336.709,631.693Z" transform="translate(-305.615 -571.569)" fill="#189e84"/>
      <path id="Path_25721" data-name="Path 25721" d="M309.961,622.945a.757.757,0,0,0,.541.067C310.311,622.835,310.166,622.791,309.961,622.945Z" transform="translate(-304.083 -571.065)" fill="#189e84"/>
      <path id="Path_25722" data-name="Path 25722" d="M313.146,623.88l.709.149C313.645,623.87,313.435,623.7,313.146,623.88Z" transform="translate(-304.265 -571.119)" fill="#189e84"/>
      <path id="Path_25723" data-name="Path 25723" d="M331.4,630.529l.614.169.009-.027-.615-.169Z" transform="translate(-305.311 -571.503)" fill="#189e84"/>
      <path id="Path_25724" data-name="Path 25724" d="M348.748,633.774l.553.086A.8.8,0,0,0,348.748,633.774Z" transform="translate(-306.305 -571.689)" fill="#189e84"/>
      <path id="Path_25725" data-name="Path 25725" d="M347.719,633.568l-.013.065.428.086.016-.076Z" transform="translate(-306.245 -571.679)" fill="#189e84"/>
      <path id="Path_25726" data-name="Path 25726" d="M328.535,629.791c-.035.1.046.1.1.1a.349.349,0,0,0,.114-.051.321.321,0,0,0-.1-.062C328.617,629.768,328.542,629.773,328.535,629.791Z" transform="translate(-305.146 -571.461)" fill="#189e84"/>
      <path id="Path_25727" data-name="Path 25727" d="M308.7,624.506l.3.051,0-.027-.306-.064Z" transform="translate(-304.01 -571.157)" fill="#189e84"/>
      <path id="Path_25728" data-name="Path 25728" d="M312.379,625.326a.81.81,0,0,0-.473-.143A.614.614,0,0,0,312.379,625.326Z" transform="translate(-304.194 -571.198)" fill="#189e84"/>
      <path id="Path_25729" data-name="Path 25729" d="M324.853,628.329c.259.048.412.17.716.063C325.3,628.341,325.15,628.215,324.853,628.329Z" transform="translate(-304.936 -571.376)" fill="#189e84"/>
      <path id="Path_25730" data-name="Path 25730" d="M310.212,622.263a.256.256,0,0,0,.392.05A.256.256,0,0,0,310.212,622.263Z" transform="translate(-304.097 -571.027)" fill="#189e84"/>
      <path id="Path_25731" data-name="Path 25731" d="M322.184,626.253a.122.122,0,0,0-.11.034c-.046.073-.01.123.057.151.039-.009.1-.008.111-.033A.1.1,0,0,0,322.184,626.253Z" transform="translate(-304.776 -571.26)" fill="#189e84"/>
      <path id="Path_25732" data-name="Path 25732" d="M316.594,624.788c.067.008.133.09.2,0l-.381-.124C316.525,624.742,316.558,624.784,316.594,624.788Z" transform="translate(-304.453 -571.169)" fill="#189e84"/>
      <path id="Path_25733" data-name="Path 25733" d="M341.041,632.667c-.074.077.016.1.064.125a.151.151,0,0,0,.181-.022c-.021-.032-.037-.085-.065-.093C341.163,632.659,341.072,632.635,341.041,632.667Z" transform="translate(-305.862 -571.626)" fill="#189e84"/>
      <path id="Path_25734" data-name="Path 25734" d="M335.826,631.579l.108.029,0-.02-.107-.03Z" transform="translate(-305.565 -571.564)" fill="#189e84"/>
      <path id="Path_25735" data-name="Path 25735" d="M353.7,576.487q1.932.356,3.842.843h-1.131A22.568,22.568,0,0,1,353.7,576.487Z" transform="translate(-306.588 -568.409)" fill="#189e84"/>
      <path id="Path_25736" data-name="Path 25736" d="M361.815,578.573c-.874-.23-1.756-.418-2.638-.606v-.206Q360.5,578.133,361.815,578.573Z" transform="translate(-306.902 -568.482)" fill="#189e84"/>
      <path id="Path_25737" data-name="Path 25737" d="M339.994,573.1c-1.383-.252-2.72-.726-4.106-.961A10.879,10.879,0,0,0,339.994,573.1Z" transform="translate(-305.568 -568.16)" fill="#189e84"/>
      <path id="Path_25738" data-name="Path 25738" d="M353.654,576.995c-.906-.176-1.787-.47-2.7-.61.45.123.9.255,1.35.367A3.712,3.712,0,0,0,353.654,576.995Z" transform="translate(-306.431 -568.403)" fill="#189e84"/>
      <path id="Path_25739" data-name="Path 25739" d="M343.666,574.105l.512.141C343.947,574.045,343.806,574.034,343.666,574.105Z" transform="translate(-306.014 -568.27)" fill="#189e84"/>
      <path id="Path_25740" data-name="Path 25740" d="M321.783,585.757v34.218l6.794-8.918h18.505v-25.3ZM354,619.975l-.23.774c-.034.115-.065.219.076.257a3.939,3.939,0,0,0,.265-.859l.023-.173Zm2.411-7.5a9.085,9.085,0,0,1-.334,1.115.2.2,0,0,1-.08.123v.475c.18-.571.387-1.131.552-1.7a2.428,2.428,0,0,0,.149-.724A2.21,2.21,0,0,0,356.414,612.475Zm0,0a9.085,9.085,0,0,1-.334,1.115.2.2,0,0,1-.08.123v.475c.18-.571.387-1.131.552-1.7a2.428,2.428,0,0,0,.149-.724A2.21,2.21,0,0,0,356.414,612.475Zm-2.411,7.5-.23.774c-.034.115-.065.219.076.257a3.939,3.939,0,0,0,.265-.859l.023-.173Zm-32.22-34.218v34.218l6.794-8.918h18.505v-25.3Zm32.362,36.065a7.746,7.746,0,0,1,.418-1.848h-.18c.157.1.061.191.03.31-.038.142-.219.241-.2.341a1.71,1.71,0,0,1-.23.866c.1.081.019.192-.011.349-.027-.073-.062-.115-.077-.164a.19.19,0,0,1-.008.045c-.219.714-.371,1.438-.536,2.163a1.329,1.329,0,0,0-.322-.288c-.026-.015-.058-.026-.084-.042.088-.306.188-.609.26-.916.077-.329.172-.651.28-.974.019-.061.069-.138.031-.173-.165-.16-.054-.349.019-.521.134-.325.241-.663.345-1H319.349a.054.054,0,0,1,.011.015l.011.011a.531.531,0,0,0,.414.276,10.071,10.071,0,0,1,1.369.384c1.189.4,2.381.79,3.589,1.111,1.414.38,2.844.682,4.267,1.028a1.8,1.8,0,0,1,.92.38,1.163,1.163,0,0,1-.782-.012c-.813-.123-1.572-.44-2.37-.628-1.341-.322-2.675-.671-4.022-.994a6.336,6.336,0,0,0-.774-.042,1.23,1.23,0,0,1-.925-.315,1.54,1.54,0,0,0-1.165-.3,1.572,1.572,0,0,1-1.48-.464.4.4,0,0,0-.169-.092l-1.061-.36h-2.565c1.081.318,2.163.659,3.259.939q2.858.725,5.686,1.58a25.792,25.792,0,0,1,3.842,1.154.944.944,0,0,0,.5.088,1.588,1.588,0,0,1,.759.123c1.146.379,2.343.559,3.508.859,1.085.275,2.166.583,3.267.8q1.271.248,2.515.58a8.237,8.237,0,0,0,2.082.464.384.384,0,0,1,.245.069,2.46,2.46,0,0,0,1.583.4.769.769,0,0,1,.656.379c-.8.181-1.476-.325-2.239-.188.51.41,1.265.15,1.733.671a19.928,19.928,0,0,1-2.918-.456,2.169,2.169,0,0,0-.318-.065,17.324,17.324,0,0,1-3.37-.844c-.192-.1-.437-.18-.6.111a.4.4,0,0,0,.3.191c2.8.748,5.636,1.369,8.476,1.944a18.6,18.6,0,0,0,3.056.537c.644.023,1.273.249,1.917.321.805.092,1.622.119,2.435.176.015-.675.015-.675.568-.633a.675.675,0,0,0,.191.02c.13-.024.219-.123.126-.242a.421.421,0,0,1-.076-.123,3.112,3.112,0,0,0,.191-.318.419.419,0,0,0,.1-.1,3.335,3.335,0,0,1-.042.518,3.54,3.54,0,0,1,.3-.468.97.97,0,0,0,.189-.406c.05-.146-.031-.311-.074-.3-.149.027-.119-.061-.11-.156a.432.432,0,0,0,0-.07c.026,0,.053,0,.08.008a.228.228,0,0,0-.076-.092c0-.035,0-.069.008-.1a.477.477,0,0,0-.061.065,2.047,2.047,0,0,0-.238-.061c.015-.084.034-.169.053-.253.066,0,.131.019.192.026a.387.387,0,0,0,.3-.088c0,.008,0,.011,0,.019a.055.055,0,0,1,.008-.026.273.273,0,0,0,.085-.226,1.217,1.217,0,0,0,.111-.272c.1-.453.214-.9.321-1.354.015-.019.027-.042.046-.061a1.025,1.025,0,0,0,.3-.916c.046-.21.1-.421.157-.629.138-.453.165-.92.33-1.368.026-.07.023-.165.1-.185.1-.023.076.111.123.161a1.756,1.756,0,0,1,.1-.521C354.222,621.7,354.229,621.811,354.145,621.822Zm-23.391,1.63c-.016-.016.008-.111.023-.116a.782.782,0,0,1,.664.177A.584.584,0,0,1,330.755,623.452Zm2.779.9c-.414.154-.733-.165-1.1-.23a1.142,1.142,0,0,1,1.135-.188.2.2,0,0,1,.169.18C333.752,624.273,333.637,624.319,333.534,624.356Zm1.1.131c-.08,0-.176,0-.221-.1.03-.107.126-.1.2-.119.107-.027.241-.039.234.119C334.845,624.514,334.719,624.491,334.638,624.487Zm2.481.513.023-.1c.011,0,.023,0,.035.008.119-.046.169.073.3.069.008-.019.008-.05.023-.05,0,.024-.008.042,0,.054.092.027.189.05.284.073C337.525,625.2,337.338,625.031,337.119,625Zm2.588.391.119.035c-.024,0-.046,0-.05.026-.011-.034-.073-.045-.092.016a.061.061,0,0,0-.041-.024A.155.155,0,0,0,339.707,625.391Zm-1.515-.16a.711.711,0,0,1,.2-.031l.464.1c.008-.016.008-.039.023-.035.046.035.057.035.092.065a2.844,2.844,0,0,0,.486.092c.085.042.192.1.288.038-.008.035-.027.02-.016.05.065.035.157.008.215.046.031.019.1,0,.123,0s.1.107.069.02c.139.011.234.1.345.111.024.015.05.03.07.045A8.311,8.311,0,0,1,338.192,625.231Zm3.62.85c-.062-.038-.142-.08-.12-.165l.008,0c.011.02.038.024.065.031,0,.03-.02.065.042.08.066-.061.127,0,.2-.019C341.972,626.109,341.892,626.105,341.812,626.082Zm2.223,1.434c-.057.157-.173.077-.264.054-.058-.015-.123-.069-.074-.145.054-.092.146-.057.226-.039C343.981,627.413,344.058,627.447,344.035,627.516Zm1.81.579a.262.262,0,0,1-.269-.153.3.3,0,0,1,0-.089.96.96,0,0,1,.173-.026c.085.011.184.034.211.134A.113.113,0,0,1,345.845,628.094Zm3.389.667a1.137,1.137,0,0,1-.356-.38c.038-.1.08-.2.115-.3a2.945,2.945,0,0,1,.318,0A4.054,4.054,0,0,1,349.234,628.762Zm.449-.288c-.069.119-.065.276-.18.376h0a.624.624,0,0,1,.184-.376c-.031-.026-.069-.05-.065-.1a1.61,1.61,0,0,1,.045-.264c.042,0,.085.011.127.015C349.759,628.244,349.709,628.359,349.682,628.474Zm.123.341c.015-.042.026-.089.076-.084a.062.062,0,0,1,.054.042C349.889,628.789,349.847,628.8,349.8,628.815Zm.629-.529.011-.042s.008,0,.015,0A.347.347,0,0,1,350.434,628.287Zm.123-.5c.031-.119.058-.238.089-.353a.987.987,0,0,1,.138-.069,4.382,4.382,0,0,0-.154.506A.782.782,0,0,1,350.556,627.788Zm.364.84c-.076-.011-.149-.035-.218-.05h-.02c.02-.085.035-.165.057-.249.077.026.157.053.226.08Zm.257-1.013c-.019.1-.039.184-.061.276a.643.643,0,0,0-.2.026c-.015,0-.03,0-.046.008.074-.211.15-.422.219-.637a1.068,1.068,0,0,1,.161.009C351.22,627.4,351.2,627.512,351.178,627.615Zm.518.41c-.05-.011-.1-.026-.146-.042a2.569,2.569,0,0,0,.111-.4c-.153.214-.153.214-.245.138-.057-.046-.069-.054.042-.2a.591.591,0,0,0,.076-.131l.011,0a.9.9,0,0,0,.311.085Zm.23-.785c-.008-.016-.019-.027-.026-.046a.365.365,0,0,1,.057-.058C351.944,627.17,351.936,627.205,351.925,627.24Zm.31.272a1.046,1.046,0,0,1-.249.41,3.62,3.62,0,0,1,.057-.418C352.105,627.5,352.17,627.512,352.235,627.512Zm.472-.866c0,.015-.012.027-.016.042-.156-.353.089-.536.15-.8a2.559,2.559,0,0,1,.134-.434C352.888,625.852,352.8,626.247,352.708,626.645Zm-20.715-54.33c1.3.325,2.615.594,3.91.939,2.734.725,5.464,1.473,8.209,2.124,1.653.391,3.3.813,4.953,1.193.372.084.74.176,1.108.268h1.166c-2.251-.529-4.5-1.05-6.744-1.6a7.409,7.409,0,0,1-1.748-.587c1.341.322,2.679.64,4.022.959-1.519-.468-3.036-.905-4.567-1.3-1.484-.383-2.994-.659-4.47-1.085-.2-.057-.414-.088-.621-.138s-.41-.1-.617-.157-.41-.119-.613-.173-.414-.107-.621-.149a3.176,3.176,0,0,1-.621-.111c-.36-.169-.154.245-.368.173a9.717,9.717,0,0,1-1.66-.491c.306-.05.56.146.931.008-.782-.268-1.473-.341-2.128-.533-.679-.2-1.369-.364-2.055-.544-.709-.189-1.419-.369-2.124-.571-.683-.2-1.384-.261-2.066-.472-.644-.2-1.3-.36-1.955-.536.848.119,1.671.3,2.492.491,2.228.521,4.455,1.043,6.659,1.671a2.743,2.743,0,0,0,1.085.069,8.511,8.511,0,0,0-1.625-.475c-1.254-.242-2.484-.583-3.711-.92-1.687-.456-3.385-.863-5.068-1.319a20.7,20.7,0,0,1-2.987-.814c-.445-.191-.955-.141-1.411-.321-.518.234-1.326-.222-1.71.284.15.141.15.138.384.169.161.023.322.008.188.222-.076.13.05.329,0,.483a1.522,1.522,0,0,0-.375-.173.706.706,0,0,0-.28.6c-.05,0-.1-.015-.154-.023a.793.793,0,0,0-.119-.51c-.057-.1-.054-.226-.234-.269a.216.216,0,0,0-.28.131,1.776,1.776,0,0,1-.111.23c-.05.073-.065.172-.119.238-.364-.081-.732-.161-1.1-.238s-.679.008-.659.176c.023.234.253.353.521.429.223.061.444.115.667.18-.306.617-.44,1.307-.728,1.936-.12.269-.107.595-.246.847a3.5,3.5,0,0,0-.306.859c-.069.288-.253.51-.337.779q-.281.88-.56,1.759a.267.267,0,0,0,.1.326c-.054-.215.226-.28.2-.449-.024-.2.153-.306.149-.486s.15-.3.189-.476a4.956,4.956,0,0,1,.141-.494,2.028,2.028,0,0,1,.191-.476,1.445,1.445,0,0,0,.165-.483c.039-.169.191-.3.222-.456s.13-.314.169-.475a1.716,1.716,0,0,1,.207-.471c.073-.127-.039-.354.264-.456-.249.728-.479,1.368-.69,2.02-.341,1.069-.713,2.128-1.074,3.189h.79c.085-.256.169-.514.257-.778.165.141.115.215.091.284-.05.165-.1.329-.157.494h34.877c-.008,0-.019,0-.027-.008-.77-.21-1.564-.337-2.342-.51-1.637-.368-3.255-.813-4.885-1.2q-7.268-1.736-14.5-3.642a8.948,8.948,0,0,1-1.407-.471c.629.1,1.269.16,1.89.306C329.347,571.625,330.666,571.982,331.992,572.316Zm8.293,1.783a19.889,19.889,0,0,1-3.04-.794A19.8,19.8,0,0,1,340.285,574.1Zm-8.128-2.021a.653.653,0,0,1,.107.057c-.046,0-.089-.011-.13-.015-.035-.023-.069-.042-.1-.061A1.249,1.249,0,0,1,332.157,572.077Zm-2.2-.575a.588.588,0,0,1-.51-.145A.539.539,0,0,1,329.957,571.5Zm-14.91,4.34a.02.02,0,0,0,.008-.015l.008,0C315.055,575.835,315.051,575.842,315.047,575.842Zm.046-.092h-.008a.22.22,0,0,0,.011-.076l.008,0A.16.16,0,0,0,315.093,575.75Zm.1-1.449a1.177,1.177,0,0,1,.272-.605A1.378,1.378,0,0,1,315.192,574.3Zm3.754-5.881c-.046.156-.276.034-.419,0-.245-.057-.49-.131-.824-.222a1.3,1.3,0,0,1,.9.041C318.731,568.278,319,568.224,318.946,568.42Zm4.532,1.993a6.511,6.511,0,0,0,1.553.211.349.349,0,0,1,.395.319C324.739,570.755,324.11,570.582,323.478,570.413Zm28.382,6.425h.586A.817.817,0,0,0,351.86,576.839Zm13.917,6.664c-.1-.061-.115.073-.161.138-.027.035-.027.111-.092.1.015-.146.13-.269.119-.43-.073.254-.334.241-.425.353.073-.18.073-.453.172-.7-.085.154-.169.307-.254.46a.151.151,0,0,1,0-.2.9.9,0,0,0,.107-.353.356.356,0,0,0-.284.275c-.1.369-.3.695-.406,1.055a.051.051,0,0,1-.088.019c.034-.073.076-.149.111-.23.019-.042.054-.115.011-.13-.215-.089-.074-.272-.042-.426.065-.31.134-.62.2-.928a.111.111,0,0,0-.035,0c-.111.223-.219.441-.33.664a.347.347,0,0,0-.238-.322c-.039.1,0,.238-.119.311-.054-.07.008-.261-.054-.207-.184.15-.126-.019-.123-.092,0-.115.069-.241.026-.349-.084-.023-.088.13-.18.1a.747.747,0,0,0,.031-.356c-.058-.265-.1-.284-.322-.085-.058-.134.035-.284.039-.429a.321.321,0,0,0-.069.038c-.157.172-.157.176-.284-.011-.024-.034-.035-.046-.074-.011-.153.13-.126.011-.111-.1.012-.065.085-.134-.019-.21a1.137,1.137,0,0,0-.169.241.056.056,0,0,0-.026,0c.008.042-.02.054-.042.08-.042-.011,0-.08-.015-.107-.024.024-.031.02-.011.046-.031-.008-.042.031-.081.008.011-.023.039-.015.039-.058-.035.008-.02-.023-.035-.034a.078.078,0,0,0-.023.015c.008-.039,0-.073-.031-.076a.052.052,0,0,0-.038.019.038.038,0,0,0-.012-.026c-.011.019,0,.034,0,.049s-.008.012-.008.02l-.008,0c-.015-.05.008-.115-.026-.119,0,.011-.027.023-.035.026a.09.09,0,0,0,0-.054c-.065.035-.141.042-.2.1-.031-.057-.074-.042-.081-.111a.1.1,0,0,1-.126-.061c-.054.019-.058.157-.115.176a.134.134,0,0,0-.05-.011.2.2,0,0,0,.015-.142.756.756,0,0,0,.092-.318c-.089.119-.119.165-.126.234a1.174,1.174,0,0,0-.139-.184c-.26-.284-.264-.36.131-.369.353-.011.337-.176.314-.345a1.085,1.085,0,0,0-.5-.648.938.938,0,0,1,.3.042,3.26,3.26,0,0,0,.337.1c.31.053.46-.058.345-.285a1.129,1.129,0,0,0-.752-.648c-.59-.145-1.173-.314-1.775-.406-.045.475-.045.475-.5.471v.012c-.534-.239-1.112-.365-1.656-.568-.146-.054-.41-.039-.319-.276.039-.1-.111-.1-.184-.126a7.262,7.262,0,0,0-1.384-.337v.5c.966.5,2.085.376,3.079.775a.859.859,0,0,0,.46.042c-.024.176-.139.264-.387.223-.161-.027-.326-.061-.483-.1-.886-.25-1.775-.471-2.669-.683v31.825l.011-.008a.294.294,0,0,1-.011.08v2.81c.215-.644.414-1.288.6-1.936.05-.184.092-.364.123-.548a4.525,4.525,0,0,1,.21-.836c.18-.479.38-.95.529-1.445.062-.2.154-.4.235-.6.026-.058.038-.154.149-.127-.1.372-.2.749-.3,1.12.023,0,.042.011.061.015.238-.406.33-.893.586-1.319.016.054.031.077.027.1q-.231.868-.464,1.737c-.027.1-.089.188-.107.284-.107.525-.326,1.028-.426,1.553-.119.64-.483,1.215-.579,1.864a2.586,2.586,0,0,1-.1.245c-.085.284-.261.536-.334.828l-.184.495a.616.616,0,0,1-.027.069v1.488a4.247,4.247,0,0,1,.288-.686,1.179,1.179,0,0,0,.1-.321,6.315,6.315,0,0,1,.284-1.089,8.492,8.492,0,0,0,.264-.863c.02-.074.07-.157.024-.215-.115-.15-.035-.334.023-.484.226-.59.33-1.211.552-1.805a1.444,1.444,0,0,0,.138-.725c-.008-.05,0-.1.054-.119.13-.038.123-.161.15-.264a2.2,2.2,0,0,1,.21-.6c.1.02,0,.169.1.189a2.781,2.781,0,0,0,.284-.53c.238-.6.471-1.2.714-1.8a3.163,3.163,0,0,1,.275-.579.41.41,0,0,0,.02-.518c.03-.057.084-.146.084-.157-.184-.141-.011-.314.042-.452a18.907,18.907,0,0,0,.633-2.016c.188-.625.349-1.258.521-1.886.107-.387.249-.763.384-1.146a4.774,4.774,0,0,1,.621-1.564.423.423,0,0,0,.038-.1c.111-.349.223-.694.334-1.043.073-.238.119-.464-.219-.552a.4.4,0,0,0,.3-.318c.031-.146.1-.288.139-.434a15.2,15.2,0,0,1,.468-1.469c.061-.153.123-.306.169-.464.3-1.058.629-2.1,1.028-3.135a3.646,3.646,0,0,1,.2-.641,3.964,3.964,0,0,0,.46-1.234c.092-.391.288-.751.372-1.146a.217.217,0,0,1,.069-.13c.165-.119.1-.3.15-.441a.95.95,0,0,0,.123-.456c-.142.054-.123.276-.288.276-.076,0-.115.1-.115.165a.737.737,0,0,1-.3.5,6.216,6.216,0,0,1,.4-1.115c.026-.057.119-.139.054-.188-.119-.085-.031-.185-.008-.284.03-.15.057-.3.084-.434-.081-.03-.1.092-.173.042.18-.541.256-1.108.479-1.645.085-.2.161-.4.241-.6C365.807,583.652,365.846,583.548,365.777,583.5Zm-9.662,26.327c.019-.107.026-.176.1-.23A.283.283,0,0,1,356.115,609.83Zm.479.238c-.011.039-.026.073-.065.08-.034-.019-.019-.057-.011-.091s.027-.089.061-.081S356.6,610.033,356.594,610.068Zm.207-.805a.586.586,0,0,1,.1-.456C356.974,608.975,356.882,609.09,356.8,609.263Zm-.732,6.28a2.192,2.192,0,0,1,.272-.855A1.179,1.179,0,0,1,356.069,615.543Zm-.046-.407a.647.647,0,0,1,.074-.375.962.962,0,0,0,.115-.586c.069.019.1-.092.169-.081A4.074,4.074,0,0,1,356.023,615.136Zm.406-.674c-.073,0-.011-.081.008-.131.008-.019.026-.03.065-.073C356.5,614.362,356.492,614.462,356.429,614.462Zm.223-.805a.156.156,0,0,1,.077-.177A.145.145,0,0,1,356.652,613.657Zm2.611-8.217a.413.413,0,0,1,.134-.237.935.935,0,0,1-.107.337C359.221,605.529,359.256,605.475,359.263,605.44Zm-.18-2.756c.011-.019.026-.038.042-.065-.012.061-.016.123-.066.15C359.052,602.772,359.068,602.715,359.083,602.683Zm-.468,1.5c.015-.03.034-.03.034,0a.551.551,0,0,1-.023.074c-.008.03-.024.041-.05.034A.536.536,0,0,1,358.616,604.179Zm-.254,4.478a.652.652,0,0,1,.077-.567c.169-.246.2-.564.41-.8A6.161,6.161,0,0,1,358.362,608.656Zm.372-1.56c-.024-.253-.024-.253.173-.6A1.47,1.47,0,0,1,358.734,607.1Zm.156-3.764a.177.177,0,0,1,.077-.2A.165.165,0,0,1,358.891,603.332Zm.222-.292c.169.192-.019.337-.111.487C359.041,603.374,359.076,603.221,359.113,603.04Zm-.041,3.719a4.056,4.056,0,0,1,.394-.931A6.357,6.357,0,0,1,359.072,606.759Zm.264-4.263a.374.374,0,0,1,.176-.33C359.451,602.277,359.393,602.388,359.336,602.5Zm.365,1.729a.943.943,0,0,1,.153-.338C359.8,603.987,359.8,604.114,359.7,604.225Zm.153-.341c-.011-.015-.038-.034-.034-.05a3.847,3.847,0,0,1,.36-1.192A7.234,7.234,0,0,1,359.853,603.883Zm.813-24.456c.092.026.189.073.192.141.008.119-.119.054-.192.035s-.188-.05-.16-.139C360.521,579.412,360.6,579.412,360.666,579.428Zm-.349,22.846c-.011.031-.019.069-.061.065a.14.14,0,0,1,0-.134c.015-.039.039-.065.069-.031S360.333,602.238,360.317,602.273Zm.157-20.508a.061.061,0,0,0,.011-.034.354.354,0,0,0,.061,0A.1.1,0,0,1,360.475,581.766Zm.249,18.821c-.038-.115.039-.176.1-.28A.468.468,0,0,1,360.723,600.587Zm.257-1.1c-.035-.011-.039-.045-.019-.08.008-.019.03-.042.045-.042.035,0,.046.031.039.069S361.011,599.494,360.981,599.486Zm-.073-18.72a.477.477,0,0,1-.326-.261.5.5,0,0,1,.445-.034c.123.026.321.069.3.188C361.295,580.823,361.1,580.834,360.908,580.765Zm.4,1.061a.03.03,0,0,1,0,.027.188.188,0,0,1-.015-.031C361.295,581.823,361.3,581.827,361.307,581.827Zm-.081,16.969a2.335,2.335,0,0,1,.28-1.069A3.126,3.126,0,0,1,361.226,598.8Zm.495-1.587c-.024.091-.042.188-.065.284-.066-.176.026-.345.061-.571C361.812,597.04,361.74,597.128,361.721,597.209Zm.138-15.217c-.042-.019-.08-.054-.038-.1.019.024.019.057.073.057C361.886,581.973,361.858,581.954,361.858,581.992Zm.2-.337a.223.223,0,0,0-.061-.069c0-.046.026-.05.041-.069.02.039.039.031.077.035C362.112,581.613,362.073,581.605,362.062,581.654Zm.31.189a.4.4,0,0,1-.073-.139c.057-.026.046.057.091.065A.422.422,0,0,1,362.372,581.843Zm.537.31c-.02.027-.039.023-.05,0a.126.126,0,0,1,.041-.13c.016-.011.054-.008.054,0C362.971,582.073,362.94,582.114,362.91,582.153Zm.349,10.294c-.016.046-.042.084-.092.084-.046-.042-.026-.1-.011-.157s.05-.1.091-.076C363.307,592.324,363.27,592.394,363.258,592.447Zm1.065-7.859c.024-.02.035-.035.05-.046-.008.042-.008.088-.019.134-.008.027-.035.031-.042.008A.388.388,0,0,1,364.324,584.588Zm.192,1.035a1.388,1.388,0,0,1-.288.816A4.708,4.708,0,0,1,364.516,585.623Zm-.3,2s.02-.012.027-.008.011.016.026.035c-.184.256-.1.6-.318.87C363.921,588.184,364.14,587.92,364.22,587.625Zm.211.548a1.232,1.232,0,0,1-.256.675A1.158,1.158,0,0,1,364.431,588.172Zm-.276.9a.511.511,0,0,1-.119.284A.483.483,0,0,1,364.155,589.077Zm-.21-5.505c.015-.015.038-.05.041-.05.031.019.011.058,0,.084a.14.14,0,0,1-.041.05C363.914,583.637,363.936,583.6,363.945,583.572Zm-.1,5.133a.78.78,0,0,1-.207.571A1.313,1.313,0,0,1,363.845,588.7Zm1-.694c.024.027.1-.145.074.011a2.506,2.506,0,0,1-.456,1.143c-.046.057-.107.1-.123.181a7.183,7.183,0,0,1-.552,1.475,6.37,6.37,0,0,0-.288.916c-.011.05-.039.107-.085.1-.076,0-.061-.073-.038-.134.23-.664.406-1.346.679-2,.141-.349.245-.714.364-1.074a4.6,4.6,0,0,1,.265-.663A.141.141,0,0,1,364.849,588.011Zm.05-4.1a1.757,1.757,0,0,1,.234-.491A2.392,2.392,0,0,1,364.9,583.913Zm-52.033-2.684v-2.66c-.365,1.177-.69,2.369-1.024,3.558-.254.9-.545,1.786-.729,2.714-.176.885-.521,1.714-.713,2.6-.146.679-.341,1.339-.526,2a5.048,5.048,0,0,0-.271.8c-.1.863-.391,1.656-.568,2.493-.111.521-.265,1.028-.426,1.533-.329,1.044-.544,2.128-.813,3.194-.038.157-.008.353-.222.441,1.1-5.019,2.515-9.922,3.765-14.945a.542.542,0,0,0-.33.46c-.076.391-.141.782-.241,1.165-.157.595-.356,1.17-.5,1.768a22.722,22.722,0,0,1-.633,2.3c-.314.879-.436,1.825-.709,2.715-.238.774-.33,1.6-.594,2.365-.223.651-.341,1.342-.518,2.009-.322,1.231-.645,2.461-.978,3.684-.235.871-.4,1.764-.614,2.641a10.515,10.515,0,0,0-.322,1.45c-.061.6-.21,1.173-.325,1.755-.135.683-.276,1.361-.415,2.04-.115.571-.226,1.146-.321,1.721-.157.916-.384,1.81-.575,2.714a26.59,26.59,0,0,0-.472,3.144c-.019.226-.045.449-.065.675,0,.061-.015.176.054.176.257-.011.261.184.391.269s.3.165.368.073c.146-.18.334-.05.522.05a2.271,2.271,0,0,1,.667.44c.027.031.054.05.081.077a6.1,6.1,0,0,1-.675.038.829.829,0,0,0-.579.621c0,.357.153.552.51.568.256.011.525-.065.778-.042a19.193,19.193,0,0,1,3.489.706c1.174.334,2.35.644,3.531.95v-.781c-.694-.2-1.385-.4-2.079-.61-.123-.039-.238-.088-.383-.141.161-.445.468-.411.759-.33.453.123.893.291,1.345.418l.357.092V582.073c-.058.188-.111.379-.157.571a.026.026,0,0,0-.027.019.026.026,0,0,1,.02.015c0,.016-.008.027-.011.039s0,.011,0,.015c-.054-.011-.054-.046-.031-.1-.039-.008-.042-.034-.073-.034-.02.042-.1.061-.135.088.035-.13.066-.26.1-.386C312.658,581.942,312.762,581.586,312.866,581.229Zm-8.09,34.237c0-.023,0-.042.008-.061s0-.011,0-.019a.365.365,0,0,1,.073.138C304.81,615.551,304.81,615.485,304.775,615.466Zm.522-4.865a.15.15,0,0,1-.012-.057.074.074,0,0,1,0-.03.063.063,0,0,0,.009-.031C305.32,610.516,305.3,610.57,305.3,610.6Zm.03-.18c0,.011-.011.015-.015.024.008-.024.011-.042.019-.066A.083.083,0,0,0,305.328,610.42Zm.024-.1c.011-.041.026-.08.038-.122C305.4,610.248,305.374,610.279,305.351,610.32Zm.091-.271c-.019.057.011.084.008.13a.138.138,0,0,0-.054,0c.011-.046.024-.089.035-.134.023,0,.046,0,.035.038C305.45,610.075,305.466,610.049,305.443,610.049Zm.027-.058c-.008,0-.012-.016-.02-.024.008-.023.011-.045.02-.065A.307.307,0,0,0,305.47,609.991Zm.084-.434c0,.015-.008.031,0,.039s-.008-.008-.008-.011a.091.091,0,0,1,.008-.027.79.79,0,0,1,.015-.084C305.593,609.493,305.565,609.531,305.554,609.558Zm.027-.141c.015-.077.034-.154.049-.23A.618.618,0,0,1,305.581,609.416Zm.521-1.753a.409.409,0,0,1-.065.011c-.035.046-.024.092-.012.154-.011-.008-.015-.031-.03-.008a.778.778,0,0,0-.039.3c-.015,0-.039-.015-.046,0-.008.065-.057.28-.1.445.008.015.034.019.03.046a.127.127,0,0,0-.03.069c-.027.008-.054-.015-.07.05.054.073-.041.149.012.238-.054.011-.042.076-.054.115a.237.237,0,0,1-.05-.015c.119-.6.219-1.212.4-1.795a.671.671,0,0,1,.054.185c-.016.011-.027.038-.046.049,0-.008,0-.015-.008,0,.015.008,0,.031,0,.054a.085.085,0,0,1,.065.027C306.106,607.614,306.106,607.637,306.1,607.664Zm.356-.74c0-.015.011-.039-.008-.05,0,0,0-.008,0-.008C306.478,606.874,306.489,606.894,306.459,606.924Zm.1-1.265c-.035.05-.035.061-.062.1-.015.1-.091.33-.1.468-.089.138-.042.349-.219.5a.851.851,0,0,1-.011-.586c.019-.05.038-.1.054-.157a.028.028,0,0,0,.026.023c.019-.034-.008-.046.008-.076a.037.037,0,0,0-.026.019.536.536,0,0,0,.011-.206c-.035-.257.076-.422.375-.472-.03.131-.057.254-.084.365C306.539,605.644,306.555,605.644,306.555,605.659Zm.567-2.933c-.03.468-.206.881-.275,1.338-.027.157.015.334-.107.464a.268.268,0,0,0,.05.008c-.046.18-.092.36-.135.536-.034.023-.038.076-.034.141a.19.19,0,0,1-.008.046c-.081-.015-.173-.046-.2-.115a.472.472,0,0,1-.023-.269,18.4,18.4,0,0,0,.41-2.3c.019-.1.011-.23.18-.271A.435.435,0,0,1,307.122,602.726Zm.081.23v-.042l.008,0A.113.113,0,0,1,307.2,602.956Zm-.107-1.089c-.115-.276-.046-.421.115-.54C307.175,601.487,307.141,601.648,307.1,601.867Zm.284-1.706c-.019-.015-.015-.042-.015-.065,0,0,.023-.008.034-.011.011.023.027.046.042.073C307.433,600.176,307.405,600.184,307.379,600.161Zm4.873-18.422a2.373,2.373,0,0,1-.291,1.273A2.056,2.056,0,0,1,312.252,581.739Zm-.364,1.484c-.016.21.1.464-.169.625A.482.482,0,0,1,311.888,583.223Zm-4.08,15.535a.69.69,0,0,1,.192-.644A.9.9,0,0,1,307.808,598.758Zm.426.916c-.015,0-.035-.02-.05-.016.046-.061-.011-.061,0-.119.058.024.042.1.073.119A.035.035,0,0,1,308.234,599.674Zm.479-1.833c-.008,0-.015,0-.019-.008a.111.111,0,0,1,.008-.035.04.04,0,0,0,.019,0C308.717,597.814,308.717,597.826,308.713,597.842Zm.05-.2c-.035-.023-.026-.1,0-.126a.062.062,0,0,1,.019.039Zm.353-1.4a.164.164,0,0,1-.026.023.1.1,0,0,0,.026-.069.014.014,0,0,0,.011,0Zm.9-3.573a.064.064,0,0,1-.008.019l0,0c-.039.169-.08.341-.123.51,0,0,0,0-.008,0a5.519,5.519,0,0,0-.15.644c0,.011,0,.024-.008.035a.442.442,0,0,0-.077.291c-.008.023-.011.046-.019.073a.17.17,0,0,0-.03.107,1.928,1.928,0,0,0-.169.491,1.3,1.3,0,0,0-.085.433c-.038.031-.1.169-.069.219-.008,0-.015,0-.023-.008.03.08-.031.123-.02.2-.015,0-.019.012-.034,0a.435.435,0,0,0-.016.219c-.053.024-.038.1-.026.139-.065-.012-.046.057-.039.091-.026.054-.184.28-.073.376,0,.023-.011.05-.015.073a.189.189,0,0,0-.042.027c0,.011.019.019.026.034a.07.07,0,0,0-.008.027c-.023,0-.034.011-.046.038.012,0,.031,0,.031.02-.015,0-.026.011-.046,0-.015.03.015.03.008.054a.2.2,0,0,0-.08.214c-.031.008-.058.039-.031.069.046,0,0-.038.024-.045.011.011.054,0,.046.026v0c-.012.031-.05.039-.031.081-.039-.027-.054.008-.073.03.05,0,.019.057-.011.035.023.084-.035.1-.07.165,0,.019.042.015.035.038a.413.413,0,0,0-.057.257c-.015,0-.011-.02-.026-.02a.532.532,0,0,1-.012.115c-.011,0-.019.012-.034,0-.031.07.046.15-.027.189.02.008.031.015.035.034-.054.02-.076.081-.092.131.046,0,.016.049.039.065-.039-.02-.046.023-.065.034.026.027.054-.034.054,0-.011.05-.035.027-.058.012-.027.038.034.015.019.045-.015,0-.023.012-.042,0-.019.061.027.092-.015.139.019.008.027-.008.042,0-.031.023-.011.057,0,.08-.031-.039-.05,0-.081.015-.019.042.05.077.02.1-.015-.011-.024-.026-.035-.034a.4.4,0,0,1-.042.168c.012-.011.035.012.042.027-.011.023-.008.084-.034.084.023-.041-.039-.038-.039-.011.019.011.023.035.039.05-.035-.03-.042-.011-.066.019.039,0,.02.042,0,.054.012.008.039.008.035.024s-.03.038-.061.023a.157.157,0,0,0,.023.123c-.008.016-.015.016-.026.02-.031,0-.015-.031-.035-.035a.765.765,0,0,0,0,.13c-.023-.019-.026.02-.046.012.027.1-.045.141-.03.225a.351.351,0,0,0-.065.207.218.218,0,0,1-.05,0,14.047,14.047,0,0,1,.406-1.99c-.058.02-.092.02-.107.035-.073.061-.088.222-.269.123s-.034-.18-.015-.272c.142-.617.272-1.234.406-1.852a1.134,1.134,0,0,1,.238-.56c-.176.667-.061,1.415-.214,2.086a1.456,1.456,0,0,0,.23-.587,42.58,42.58,0,0,1,1.242-4.451.723.723,0,0,1,.226-.4C310.147,592.1,310.082,592.39,310.017,592.674Zm1.584-4.344c-.039-.02-.031-.065-.024-.115,0,.019.024.034.035.05Zm.444-1.99.024-.091a.05.05,0,0,1,.054.053c-.012.035-.054.012-.07.046C312.048,586.347,312.048,586.343,312.044,586.34Zm.074.05c-.012,0-.02-.008-.012-.027.027.031.054.009.089,0l0,0A.348.348,0,0,1,312.118,586.39Zm.4-3.638c0-.062.07-.042.1-.058a.363.363,0,0,1,.054.114.089.089,0,0,1-.008.031.1.1,0,0,0-.046.011.065.065,0,0,1,.039.02c-.23.97-.556,1.909-.767,2.887-.115.533-.288,1.046-.421,1.571-.1.38-.191.764-.288,1.143-.034.139-.073.276-.107.415a.476.476,0,0,0-.038.153c-.02.074-.039.142-.058.215a1.177,1.177,0,0,0-.07.265c-.026.088-.045.176-.073.264a.206.206,0,0,0-.023.1c-.011.026-.016.058-.027.088a.066.066,0,0,1-.023.035,1.279,1.279,0,0,1-.111.364c.019.189-.13.4-.126.587-.02.073-.042.141-.065.214a1.042,1.042,0,0,0-.062.192,3.761,3.761,0,0,1-.176.445c-.156-.085-.111-.169-.08-.242a17.651,17.651,0,0,0,.518-2c.042-.157.085-.31.134-.46a30.163,30.163,0,0,0,.775-3.2c.145-.666.36-1.307.556-1.955.123-.4.218-.813.321-1.219C312.455,582.7,312.471,582.763,312.516,582.752Zm43.9,29.724a9.085,9.085,0,0,1-.334,1.115.2.2,0,0,1-.08.123v.475c.18-.571.387-1.131.552-1.7a2.428,2.428,0,0,0,.149-.724A2.21,2.21,0,0,0,356.414,612.475Zm-2.411,7.5-.23.774c-.034.115-.065.219.076.257a3.939,3.939,0,0,0,.265-.859l.023-.173Zm-32.22-34.218v34.218l6.794-8.918h18.505v-25.3Zm34.632,26.718a9.085,9.085,0,0,1-.334,1.115.2.2,0,0,1-.08.123v.475c.18-.571.387-1.131.552-1.7a2.428,2.428,0,0,0,.149-.724A2.21,2.21,0,0,0,356.414,612.475Z" transform="translate(-303.726 -567.918)" fill="#189e84"/>
      <path id="Path_25741" data-name="Path 25741" d="M363.478,608.056c-.028.163-.161-.042-.179.108a.635.635,0,0,1-.057.14c-.315.8-.638,1.592-.938,2.394a3.712,3.712,0,0,0-.238.89,1.654,1.654,0,0,0,.5-.9,2.071,2.071,0,0,1,.188-.751c.111-.308.228-.613.311-.929a1.559,1.559,0,0,1,.273-.573c-.072.411-.262.713-.328,1.045a8.926,8.926,0,0,0,.649-1.7A.368.368,0,0,0,363.478,608.056Z" transform="translate(-307.068 -570.201)" fill="#189e84"/>
      <path id="Path_25742" data-name="Path 25742" d="M365.842,599.673a.105.105,0,0,0,.025.126c.059.043.1-.023.127-.073a2.574,2.574,0,0,0,.192-.605c.145-.466.287-.931.43-1.4A7.618,7.618,0,0,0,365.842,599.673Z" transform="translate(-307.284 -569.625)" fill="#189e84"/>
      <path id="Path_25743" data-name="Path 25743" d="M362.526,609.766c-.015.037-.041.093.026.1a11.95,11.95,0,0,0,.628-1.687.28.28,0,0,0,.007-.238.606.606,0,0,1-.041.133A15.547,15.547,0,0,0,362.526,609.766Z" transform="translate(-307.093 -570.211)" fill="#189e84"/>
      <path id="Path_25744" data-name="Path 25744" d="M369.339,590.57l-.434,1.345A2.931,2.931,0,0,0,369.339,590.57Z" transform="translate(-307.46 -569.216)" fill="#189e84"/>
      <path id="Path_25745" data-name="Path 25745" d="M366.941,597.583c-.047.38-.3.71-.322,1.088A2.105,2.105,0,0,0,366.941,597.583Z" transform="translate(-307.329 -569.617)" fill="#189e84"/>
      <path id="Path_25746" data-name="Path 25746" d="M365.645,600.293c-.079-.084-.112-.064-.148.047-.025.077-.092.154-.032.269.135-.3.192-.058.293.014.05-.149.091-.273.145-.432C365.793,600.218,365.706,600.356,365.645,600.293Z" transform="translate(-307.261 -569.767)" fill="#189e84"/>
      <path id="Path_25747" data-name="Path 25747" d="M369.037,587.284a3.74,3.74,0,0,0,.37-1.033l-.058-.013Z" transform="translate(-307.467 -568.968)" fill="#189e84"/>
      <path id="Path_25748" data-name="Path 25748" d="M355.63,631.925a1.466,1.466,0,0,0-.371.674A1.112,1.112,0,0,0,355.63,631.925Z" transform="translate(-306.678 -571.585)" fill="#189e84"/>
      <path id="Path_25749" data-name="Path 25749" d="M368.791,590.314c.169-.191.1-.449.258-.689A.824.824,0,0,0,368.791,590.314Z" transform="translate(-307.453 -569.161)" fill="#189e84"/>
      <path id="Path_25750" data-name="Path 25750" d="M363.232,607.929l0,.008,0,0,0,.005,0-.01Z" transform="translate(-307.134 -570.21)" fill="#189e84"/>
      <path id="Path_25751" data-name="Path 25751" d="M363.286,607.546a.729.729,0,0,1-.054.35,1.488,1.488,0,0,0,.227-.552C363.332,607.373,363.262,607.438,363.286,607.546Z" transform="translate(-307.135 -570.177)" fill="#189e84"/>
      <path id="Path_25752" data-name="Path 25752" d="M366.152,598.369c0-.192.168-.316.222-.577A.5.5,0,0,0,366.152,598.369Z" transform="translate(-307.301 -569.629)" fill="#189e84"/>
      <path id="Path_25753" data-name="Path 25753" d="M360.052,614.213a.259.259,0,0,0,.045-.057c.042-.1.082-.206.155-.39C360.017,614.007,360.017,614.007,360.052,614.213Z" transform="translate(-306.951 -570.544)" fill="#189e84"/>
      <path id="Path_25754" data-name="Path 25754" d="M360.25,613.287c.015-.1.21-.176.084-.335A.656.656,0,0,0,360.25,613.287Z" transform="translate(-306.964 -570.498)" fill="#189e84"/>
      <path id="Path_25755" data-name="Path 25755" d="M363.96,607.1c.042-.144.074-.259.13-.455C363.939,606.915,363.939,606.915,363.96,607.1Z" transform="translate(-307.176 -570.136)" fill="#189e84"/>
      <path id="Path_25756" data-name="Path 25756" d="M364.192,606.24a.285.285,0,0,0,.041-.32A.326.326,0,0,0,364.192,606.24Z" transform="translate(-307.188 -570.095)" fill="#189e84"/>
      <path id="Path_25757" data-name="Path 25757" d="M367.549,595.809a1.023,1.023,0,0,0-.142.339A1.023,1.023,0,0,0,367.549,595.809Z" transform="translate(-307.374 -569.516)" fill="#189e84"/>
      <path id="Path_25758" data-name="Path 25758" d="M354.24,632.988a.494.494,0,0,0-.139.356A.831.831,0,0,0,354.24,632.988Z" transform="translate(-306.611 -571.646)" fill="#189e84"/>
      <path id="Path_25759" data-name="Path 25759" d="M368.838,590.533a.284.284,0,0,0,.082-.234C368.9,590.383,368.807,590.438,368.838,590.533Z" transform="translate(-307.455 -569.2)" fill="#189e84"/>
      <path id="Path_25760" data-name="Path 25760" d="M356.975,626.287c-.017.057-.029.116-.041.173,0,.009.008.019.012.028.008-.006.022-.01.025-.018.027-.063.083-.122.054-.194C357.025,626.27,356.978,626.28,356.975,626.287Z" transform="translate(-306.774 -571.261)" fill="#189e84"/>
      <path id="Path_25761" data-name="Path 25761" d="M362.187,610.889c.071-.041.074-.11.086-.18A.189.189,0,0,0,362.187,610.889Z" transform="translate(-307.075 -570.369)" fill="#189e84"/>
      <path id="Path_25762" data-name="Path 25762" d="M368.145,583.41c.041-.133.108-.186.1-.306A.456.456,0,0,0,368.145,583.41Z" transform="translate(-307.416 -568.788)" fill="#189e84"/>
      <path id="Path_25763" data-name="Path 25763" d="M368.551,591.346a.322.322,0,0,0,.042-.059c.012-.031.067-.086.008-.089C368.574,591.2,368.55,591.288,368.551,591.346Z" transform="translate(-307.439 -569.252)" fill="#189e84"/>
      <path id="Path_25764" data-name="Path 25764" d="M362.435,610.357c.009-.034,0-.07-.03-.074-.009,0-.033.026-.037.043-.009.033-.007.067.028.076C362.409,610.388,362.43,610.374,362.435,610.357Z" transform="translate(-307.085 -570.345)" fill="#189e84"/>
      <path id="Path_25765" data-name="Path 25765" d="M355.887,631.081c-.015.029-.012.047.006.05a.346.346,0,0,0,.035-.063.152.152,0,0,0,0-.05C355.913,631.039,355.9,631.059,355.887,631.081Z" transform="translate(-306.713 -571.533)" fill="#189e84"/>
      <path id="Path_25766" data-name="Path 25766" d="M367.208,596.791l.037-.061v-.054a.348.348,0,0,0-.036.063A.159.159,0,0,0,367.208,596.791Z" transform="translate(-307.362 -569.565)" fill="#189e84"/>
      <path id="Path_25767" data-name="Path 25767" d="M365.369,601.491a.292.292,0,0,0,0,.029c.007-.011.013-.022.019-.033.019-.037.015-.049-.006-.032S365.372,601.479,365.369,601.491Z" transform="translate(-307.257 -569.839)" fill="#189e84"/>
      <path id="Path_25768" data-name="Path 25768" d="M357.157,625.748l.1-.283h0C357.217,625.551,357.125,625.619,357.157,625.748Z" transform="translate(-306.786 -571.215)" fill="#189e84"/>
      <path id="Path_25769" data-name="Path 25769" d="M360.276,615.472c.039-.046.063-.064.065-.08s.075-.075,0-.068C360.324,615.325,360.305,615.4,360.276,615.472Z" transform="translate(-306.965 -570.634)" fill="#189e84"/>
      <path id="Path_25770" data-name="Path 25770" d="M365.554,602.057l-.02.064a.235.235,0,0,0,.04-.047c.006-.011,0-.029,0-.044Z" transform="translate(-307.266 -569.872)" fill="#189e84"/>
    </g>
  </g>
</svg>
